<?xml version="1.0" standalone="no" ?>
<!DOCTYPE svg PUBLIC "-//W3C//DTD SVG 1.1//EN" "http://www.w3.org/Graphics/SVG/1.1/DTD/svg11.dtd">

<svg width="840px" height="640px" xmlns="http://www.w3.org/2000/svg" version="1.1">

<text x="90" y="40" text-anchor="centre" font-size="15px" fill="#aaaaaa">k=12, m=80, n=90, g=10</text>

<circle cx="90" cy="60" r="2" stroke="black" stroke-width="1"/>
<circle cx="120" cy="60" r="2" stroke="black" stroke-width="1"/>
<circle cx="150" cy="60" r="2" stroke="black" stroke-width="1"/>
<circle cx="180" cy="60" r="2" stroke="black" stroke-width="1"/>
<circle cx="210" cy="60" r="2" stroke="black" stroke-width="1"/>
<rect x="210" y="60" width="30" height="30" style="fill:black;fill-opacity:0.3;" />
<circle cx="240" cy="60" r="2" stroke="black" stroke-width="1"/>
<circle cx="270" cy="60" r="2" stroke="black" stroke-width="1"/>
<circle cx="300" cy="60" r="2" stroke="black" stroke-width="1"/>
<circle cx="330" cy="60" r="2" stroke="black" stroke-width="1"/>
<circle cx="90" cy="90" r="2" stroke="black" stroke-width="1"/>
<circle cx="120" cy="90" r="2" stroke="black" stroke-width="1"/>
<rect x="120" y="90" width="30" height="30" style="fill:black;fill-opacity:0.3;" />
<circle cx="150" cy="90" r="2" stroke="black" stroke-width="1"/>
<circle cx="180" cy="90" r="2" stroke="black" stroke-width="1"/>
<circle cx="210" cy="90" r="2" stroke="black" stroke-width="1"/>
<rect x="210" y="90" width="30" height="30" style="fill:black;fill-opacity:0.3;" />
<circle cx="240" cy="90" r="2" stroke="black" stroke-width="1"/>
<circle cx="270" cy="90" r="2" stroke="black" stroke-width="1"/>
<circle cx="300" cy="90" r="2" stroke="black" stroke-width="1"/>
<circle cx="330" cy="90" r="2" stroke="black" stroke-width="1"/>
<circle cx="90" cy="120" r="2" stroke="black" stroke-width="1"/>
<circle cx="120" cy="120" r="2" stroke="black" stroke-width="1"/>
<circle cx="150" cy="120" r="2" stroke="black" stroke-width="1"/>
<circle cx="180" cy="120" r="2" stroke="black" stroke-width="1"/>
<circle cx="210" cy="120" r="2" stroke="black" stroke-width="1"/>
<circle cx="240" cy="120" r="2" stroke="black" stroke-width="1"/>
<circle cx="270" cy="120" r="2" stroke="black" stroke-width="1"/>
<circle cx="300" cy="120" r="2" stroke="black" stroke-width="1"/>
<circle cx="330" cy="120" r="2" stroke="black" stroke-width="1"/>
<circle cx="90" cy="150" r="2" stroke="black" stroke-width="1"/>
<circle cx="120" cy="150" r="2" stroke="black" stroke-width="1"/>
<circle cx="150" cy="150" r="2" stroke="black" stroke-width="1"/>
<rect x="150" y="150" width="30" height="30" style="fill:black;fill-opacity:0.3;" />
<circle cx="180" cy="150" r="2" stroke="black" stroke-width="1"/>
<circle cx="210" cy="150" r="2" stroke="black" stroke-width="1"/>
<circle cx="240" cy="150" r="2" stroke="black" stroke-width="1"/>
<circle cx="270" cy="150" r="2" stroke="black" stroke-width="1"/>
<circle cx="300" cy="150" r="2" stroke="black" stroke-width="1"/>
<circle cx="330" cy="150" r="2" stroke="black" stroke-width="1"/>
<circle cx="90" cy="180" r="2" stroke="black" stroke-width="1"/>
<circle cx="120" cy="180" r="2" stroke="black" stroke-width="1"/>
<circle cx="150" cy="180" r="2" stroke="black" stroke-width="1"/>
<rect x="150" y="180" width="30" height="30" style="fill:black;fill-opacity:0.3;" />
<circle cx="180" cy="180" r="2" stroke="black" stroke-width="1"/>
<rect x="180" y="180" width="30" height="30" style="fill:black;fill-opacity:0.3;" />
<circle cx="210" cy="180" r="2" stroke="black" stroke-width="1"/>
<circle cx="240" cy="180" r="2" stroke="black" stroke-width="1"/>
<circle cx="270" cy="180" r="2" stroke="black" stroke-width="1"/>
<circle cx="300" cy="180" r="2" stroke="black" stroke-width="1"/>
<circle cx="330" cy="180" r="2" stroke="black" stroke-width="1"/>
<circle cx="90" cy="210" r="2" stroke="black" stroke-width="1"/>
<circle cx="120" cy="210" r="2" stroke="black" stroke-width="1"/>
<circle cx="150" cy="210" r="2" stroke="black" stroke-width="1"/>
<circle cx="180" cy="210" r="2" stroke="black" stroke-width="1"/>
<circle cx="210" cy="210" r="2" stroke="black" stroke-width="1"/>
<circle cx="240" cy="210" r="2" stroke="black" stroke-width="1"/>
<circle cx="270" cy="210" r="2" stroke="black" stroke-width="1"/>
<circle cx="300" cy="210" r="2" stroke="black" stroke-width="1"/>
<circle cx="330" cy="210" r="2" stroke="black" stroke-width="1"/>
<circle cx="90" cy="240" r="2" stroke="black" stroke-width="1"/>
<circle cx="120" cy="240" r="2" stroke="black" stroke-width="1"/>
<circle cx="150" cy="240" r="2" stroke="black" stroke-width="1"/>
<circle cx="180" cy="240" r="2" stroke="black" stroke-width="1"/>
<circle cx="210" cy="240" r="2" stroke="black" stroke-width="1"/>
<circle cx="240" cy="240" r="2" stroke="black" stroke-width="1"/>
<circle cx="270" cy="240" r="2" stroke="black" stroke-width="1"/>
<circle cx="300" cy="240" r="2" stroke="black" stroke-width="1"/>
<rect x="300" y="240" width="30" height="30" style="fill:black;fill-opacity:0.3;" />
<circle cx="330" cy="240" r="2" stroke="black" stroke-width="1"/>
<circle cx="90" cy="270" r="2" stroke="black" stroke-width="1"/>
<circle cx="120" cy="270" r="2" stroke="black" stroke-width="1"/>
<rect x="120" y="270" width="30" height="30" style="fill:black;fill-opacity:0.3;" />
<circle cx="150" cy="270" r="2" stroke="black" stroke-width="1"/>
<rect x="150" y="270" width="30" height="30" style="fill:black;fill-opacity:0.3;" />
<circle cx="180" cy="270" r="2" stroke="black" stroke-width="1"/>
<circle cx="210" cy="270" r="2" stroke="black" stroke-width="1"/>
<circle cx="240" cy="270" r="2" stroke="black" stroke-width="1"/>
<circle cx="270" cy="270" r="2" stroke="black" stroke-width="1"/>
<circle cx="300" cy="270" r="2" stroke="black" stroke-width="1"/>
<rect x="300" y="270" width="30" height="30" style="fill:black;fill-opacity:0.3;" />
<circle cx="330" cy="270" r="2" stroke="black" stroke-width="1"/>
<circle cx="90" cy="300" r="2" stroke="black" stroke-width="1"/>
<circle cx="120" cy="300" r="2" stroke="black" stroke-width="1"/>
<circle cx="150" cy="300" r="2" stroke="black" stroke-width="1"/>
<circle cx="180" cy="300" r="2" stroke="black" stroke-width="1"/>
<rect x="180" y="300" width="30" height="30" style="fill:black;fill-opacity:0.3;" />
<circle cx="210" cy="300" r="2" stroke="black" stroke-width="1"/>
<circle cx="240" cy="300" r="2" stroke="black" stroke-width="1"/>
<circle cx="270" cy="300" r="2" stroke="black" stroke-width="1"/>
<rect x="270" y="300" width="30" height="30" style="fill:black;fill-opacity:0.3;" />
<circle cx="300" cy="300" r="2" stroke="black" stroke-width="1"/>
<circle cx="330" cy="300" r="2" stroke="black" stroke-width="1"/>
<circle cx="90" cy="330" r="2" stroke="black" stroke-width="1"/>
<circle cx="120" cy="330" r="2" stroke="black" stroke-width="1"/>
<circle cx="150" cy="330" r="2" stroke="black" stroke-width="1"/>
<circle cx="180" cy="330" r="2" stroke="black" stroke-width="1"/>
<circle cx="210" cy="330" r="2" stroke="black" stroke-width="1"/>
<circle cx="240" cy="330" r="2" stroke="black" stroke-width="1"/>
<circle cx="270" cy="330" r="2" stroke="black" stroke-width="1"/>
<circle cx="300" cy="330" r="2" stroke="black" stroke-width="1"/>
<circle cx="330" cy="330" r="2" stroke="black" stroke-width="1"/>
<line x1="90" y1="330" x2="120" y2="270" style="stroke:rgb(255,0,0);stroke-width:2" />
<line x1="120" y1="270" x2="210" y2="210" style="stroke:rgb(255,0,0);stroke-width:2" />
<line x1="210" y1="210" x2="330" y2="60" style="stroke:rgb(255,0,0);stroke-width:2" />

<text x="90" y="350" text-anchor="centre" font-size="15px" fill="red">L=2.236068+3.605551+6.403124=12.244743</text>

</svg>
